<svg xmlns="http://www.w3.org/2000/svg" xmlns:xlink="http://www.w3.org/1999/xlink" width="652" zoomAndPan="magnify" viewBox="0 0 652 216" height="216" preserveAspectRatio="xMidYMid meet" version="1.0"><defs><g/><clipPath id="2f50b9cb25"><path d="M 120.492188 116.246094 L 296 116.246094 L 296 213.214844 L 120.492188 213.214844 Z M 120.492188 116.246094 " clip-rule="nonzero"/></clipPath><clipPath id="1172c4e4b5"><path d="M 279.171875 140.519531 C 273.285156 141.910156 267.378906 143.144531 261.390625 144.21875 L 227.222656 208.742188 C 225.699219 211.613281 223.058594 213.074219 219.839844 213.074219 L 196.265625 213.058594 C 192.902344 213.058594 190.480469 211.152344 188.980469 208.285156 L 160.542969 153.949219 C 158.820312 150.65625 156.953125 147.90625 155.617188 144.339844 C 149.457031 143.203125 143.359375 141.945312 137.273438 140.511719 C 126.917969 138.074219 119.78125 128.496094 120.550781 117.886719 C 120.585938 117.402344 120.625 116.917969 120.667969 116.425781 C 136.167969 121.238281 151.546875 124.875 167.777344 127.066406 L 202.015625 192.527344 C 202.390625 193.246094 203.675781 193.886719 204.308594 194.164062 L 211.757812 194.242188 C 213.214844 193.925781 214.175781 193.207031 214.914062 191.8125 L 249.175781 127.019531 C 264.992188 124.8125 280.109375 121.339844 295.683594 116.4375 C 295.691406 116.503906 295.699219 116.566406 295.710938 116.632812 C 297.175781 127.636719 289.972656 137.960938 279.171875 140.519531 Z M 279.171875 140.519531 " clip-rule="nonzero"/></clipPath><clipPath id="33a8de26f7"><path d="M 0.492188 0.40625 L 176 0.40625 L 176 97.109375 L 0.492188 97.109375 Z M 0.492188 0.40625 " clip-rule="nonzero"/></clipPath><clipPath id="56265f8acf"><path d="M 159.171875 24.519531 C 153.285156 25.910156 147.378906 27.144531 141.390625 28.21875 L 107.222656 92.742188 C 105.699219 95.613281 103.058594 97.074219 99.839844 97.074219 L 76.265625 97.058594 C 72.902344 97.058594 70.480469 95.152344 68.980469 92.285156 L 40.542969 37.949219 C 38.820312 34.65625 36.953125 31.90625 35.617188 28.339844 C 29.457031 27.203125 23.359375 25.945312 17.273438 24.511719 C 6.917969 22.074219 -0.21875 12.496094 0.550781 1.886719 C 0.585938 1.402344 0.625 0.917969 0.667969 0.425781 C 16.167969 5.238281 31.546875 8.875 47.777344 11.066406 L 82.015625 76.527344 C 82.390625 77.246094 83.675781 77.886719 84.308594 78.164062 L 91.757812 78.242188 C 93.214844 77.925781 94.175781 77.207031 94.914062 75.8125 L 129.175781 11.019531 C 144.992188 8.8125 160.109375 5.339844 175.683594 0.4375 C 175.691406 0.503906 175.699219 0.566406 175.710938 0.632812 C 177.175781 11.636719 169.972656 21.960938 159.171875 24.519531 Z M 159.171875 24.519531 " clip-rule="nonzero"/></clipPath><clipPath id="5b75383a2c"><rect x="0" width="176" y="0" height="98"/></clipPath><clipPath id="f0f0b351a4"><path d="M 142.808594 153.226562 L 273.703125 153.226562 L 273.703125 190 L 142.808594 190 Z M 142.808594 153.226562 " clip-rule="nonzero"/></clipPath><clipPath id="a0c05333cf"><path d="M 156.640625 189.632812 L 150.347656 183.839844 L 142.808594 176.597656 C 180.664062 145.6875 235.765625 145.609375 273.648438 176.457031 L 260.289062 189.871094 C 229.679688 166.613281 187.8125 166.167969 156.640625 189.632812 Z M 156.640625 189.632812 " clip-rule="nonzero"/></clipPath><clipPath id="592b29356c"><path d="M 0.808594 0.359375 L 131.703125 0.359375 L 131.703125 37 L 0.808594 37 Z M 0.808594 0.359375 " clip-rule="nonzero"/></clipPath><clipPath id="8a6d6f36d3"><path d="M 14.640625 36.632812 L 8.347656 30.839844 L 0.808594 23.597656 C 38.664062 -7.3125 93.765625 -7.390625 131.648438 23.457031 L 118.289062 36.871094 C 87.679688 13.613281 45.8125 13.167969 14.640625 36.632812 Z M 14.640625 36.632812 " clip-rule="nonzero"/></clipPath><clipPath id="10fea02c61"><rect x="0" width="132" y="0" height="37"/></clipPath><clipPath id="ff9e3f2477"><path d="M 142.667969 79.945312 L 273.703125 79.945312 L 273.703125 116.589844 L 142.667969 116.589844 Z M 142.667969 79.945312 " clip-rule="nonzero"/></clipPath><clipPath id="b09e804b87"><path d="M 259.820312 80.183594 L 266.113281 85.972656 L 273.652344 93.21875 C 235.796875 124.128906 180.695312 124.207031 142.808594 93.355469 L 156.171875 79.945312 C 186.785156 103.203125 228.648438 103.648438 259.820312 80.183594 Z M 259.820312 80.183594 " clip-rule="nonzero"/></clipPath><clipPath id="9f175809b6"><path d="M 0.78125 0.945312 L 131.703125 0.945312 L 131.703125 37.589844 L 0.78125 37.589844 Z M 0.78125 0.945312 " clip-rule="nonzero"/></clipPath><clipPath id="ecac04b267"><path d="M 117.820312 1.183594 L 124.113281 6.972656 L 131.652344 14.21875 C 93.796875 45.128906 38.695312 45.207031 0.808594 14.355469 L 14.171875 0.945312 C 44.785156 24.203125 86.648438 24.648438 117.820312 1.183594 Z M 117.820312 1.183594 " clip-rule="nonzero"/></clipPath><clipPath id="4e0fd83de6"><rect x="0" width="132" y="0" height="38"/></clipPath></defs><g clip-path="url(#2f50b9cb25)"><g clip-path="url(#1172c4e4b5)"><g transform="matrix(1, 0, 0, 1, 120, 116)"><g clip-path="url(#5b75383a2c)"><g clip-path="url(#33a8de26f7)"><g clip-path="url(#56265f8acf)"><path fill="#0F5132" d="M 0.492188 0.425781 L 175.898438 0.425781 L 175.898438 97.035156 L 0.492188 97.035156 Z M 0.492188 0.425781 " fill-opacity="1" fill-rule="nonzero"/></g></g></g></g></g></g><g clip-path="url(#f0f0b351a4)"><g clip-path="url(#a0c05333cf)"><g transform="matrix(1, 0, 0, 1, 142, 153)"><g clip-path="url(#10fea02c61)"><g clip-path="url(#592b29356c)"><g clip-path="url(#8a6d6f36d3)"><path fill="#0F5132" d="M 0.808594 0.367188 L 131.703125 0.367188 L 131.703125 36.871094 L 0.808594 36.871094 Z M 0.808594 0.367188 " fill-opacity="1" fill-rule="nonzero"/></g></g></g></g></g></g><g clip-path="url(#ff9e3f2477)"><g clip-path="url(#b09e804b87)"><g transform="matrix(1, 0, 0, 1, 142, 79)"><g clip-path="url(#4e0fd83de6)"><g clip-path="url(#9f175809b6)"><g clip-path="url(#ecac04b267)"><path fill="#0F5132" d="M 0.808594 0.945312 L 131.703125 0.945312 L 131.703125 37.449219 L 0.808594 37.449219 Z M 0.808594 0.945312 " fill-opacity="1" fill-rule="nonzero"/></g></g></g></g></g></g><g fill="#0F5132" fill-opacity="1"><g transform="translate(323.766487, 183.021335)"><g><path d="M 17.625 -40.1875 C 19.070312 -42.507812 20.921875 -44.289062 23.171875 -45.53125 C 25.429688 -46.78125 28.035156 -47.40625 30.984375 -47.40625 C 34.691406 -47.40625 38.003906 -46.429688 40.921875 -44.484375 C 43.847656 -42.546875 46.117188 -39.78125 47.734375 -36.1875 C 49.359375 -32.601562 50.171875 -28.410156 50.171875 -23.609375 C 50.171875 -18.804688 49.40625 -14.523438 47.875 -10.765625 C 46.34375 -7.003906 44.113281 -4.066406 41.1875 -1.953125 C 38.269531 0.160156 34.785156 1.21875 30.734375 1.21875 C 27.953125 1.21875 25.375 0.667969 23 -0.421875 C 20.632812 -1.523438 18.753906 -3.320312 17.359375 -5.8125 L 17.1875 -5.8125 L 17.1875 0 L 5.296875 0 L 5.296875 -62.328125 L 17.453125 -62.328125 L 17.453125 -40.1875 Z M 37.671875 -22.828125 C 37.671875 -27.222656 36.785156 -30.664062 35.015625 -33.15625 C 33.253906 -35.644531 30.671875 -36.890625 27.265625 -36.890625 C 23.898438 -36.890625 21.332031 -35.644531 19.5625 -33.15625 C 17.800781 -30.664062 16.921875 -26.960938 16.921875 -22.046875 C 16.921875 -17.992188 17.890625 -14.765625 19.828125 -12.359375 C 21.773438 -9.960938 24.453125 -8.765625 27.859375 -8.765625 C 30.929688 -8.765625 33.332031 -10.125 35.0625 -12.84375 C 36.800781 -15.5625 37.671875 -18.890625 37.671875 -22.828125 Z M 37.671875 -22.828125 "/></g></g></g><g fill="#0F5132" fill-opacity="1"><g transform="translate(376.808393, 183.021335)"><g><path d="M 25 -8.5 C 26.789062 -8.5 28.425781 -8.929688 29.90625 -9.796875 C 31.382812 -10.671875 32.351562 -11.921875 32.8125 -13.546875 L 45.3125 -13.546875 C 43.976562 -8.859375 41.515625 -5.222656 37.921875 -2.640625 C 34.335938 -0.0664062 30.03125 1.21875 25 1.21875 C 17.363281 1.21875 11.617188 -0.890625 7.765625 -5.109375 C 3.921875 -9.335938 2 -15.617188 2 -23.953125 C 2 -28.523438 2.851562 -32.578125 4.5625 -36.109375 C 6.269531 -39.640625 8.769531 -42.40625 12.0625 -44.40625 C 15.363281 -46.40625 19.359375 -47.40625 24.046875 -47.40625 C 30.640625 -47.40625 35.921875 -45.289062 39.890625 -41.0625 C 43.859375 -36.832031 45.84375 -30.4375 45.84375 -21.875 L 45.84375 -19.796875 L 14.15625 -19.796875 C 14.5625 -12.265625 18.175781 -8.5 25 -8.5 Z M 23.875 -37.421875 C 18.320312 -37.421875 15.195312 -34.175781 14.5 -27.6875 L 33.34375 -27.6875 C 33.050781 -30.695312 32.0625 -33.070312 30.375 -34.8125 C 28.695312 -36.550781 26.53125 -37.421875 23.875 -37.421875 Z M 23.875 -37.421875 "/></g></g></g><g fill="#0F5132" fill-opacity="1"><g transform="translate(425.075666, 183.021335)"><g><path d="M 5.984375 0 L 5.984375 -62.328125 L 18.140625 -62.328125 L 18.140625 0 Z M 5.984375 0 "/></g></g></g><g fill="#0F5132" fill-opacity="1"><g transform="translate(449.209303, 183.021335)"><g><path d="M 25.34375 -37.15625 C 22.101562 -37.15625 19.644531 -35.9375 17.96875 -33.5 C 16.289062 -31.070312 15.453125 -27.601562 15.453125 -23.09375 C 15.453125 -17.820312 16.289062 -14.113281 17.96875 -11.96875 C 19.644531 -9.832031 21.929688 -8.765625 24.828125 -8.765625 C 27.085938 -8.765625 28.96875 -9.53125 30.46875 -11.0625 C 31.976562 -12.601562 32.847656 -14.53125 33.078125 -16.84375 L 45.40625 -16.84375 C 44.65625 -11.519531 42.484375 -7.175781 38.890625 -3.8125 C 35.304688 -0.457031 30.445312 1.21875 24.3125 1.21875 C 17.363281 1.21875 12.066406 -0.847656 8.421875 -4.984375 C 4.773438 -9.128906 2.953125 -14.734375 2.953125 -21.796875 C 2.953125 -30.066406 4.859375 -36.398438 8.671875 -40.796875 C 12.492188 -45.203125 17.96875 -47.40625 25.09375 -47.40625 C 28.789062 -47.40625 32.144531 -46.707031 35.15625 -45.3125 C 38.164062 -43.925781 40.582031 -41.882812 42.40625 -39.1875 C 44.226562 -36.5 45.253906 -33.332031 45.484375 -29.6875 L 33.15625 -29.6875 C 32.8125 -31.945312 31.988281 -33.753906 30.6875 -35.109375 C 29.382812 -36.472656 27.601562 -37.15625 25.34375 -37.15625 Z M 25.34375 -37.15625 "/></g></g></g><g fill="#0F5132" fill-opacity="1"><g transform="translate(497.476577, 183.021335)"><g><path d="M 17.96875 -40.1875 C 19.007812 -42.394531 20.757812 -44.148438 23.21875 -45.453125 C 25.675781 -46.753906 28.382812 -47.40625 31.34375 -47.40625 C 36.144531 -47.40625 40.019531 -46.015625 42.96875 -43.234375 C 45.925781 -40.453125 47.40625 -36.804688 47.40625 -32.296875 L 47.40625 0 L 35.25 0 L 35.25 -28.90625 C 35.25 -34.40625 32.613281 -37.15625 27.34375 -37.15625 C 24.507812 -37.15625 22.207031 -36.226562 20.4375 -34.375 C 18.675781 -32.519531 17.796875 -30.003906 17.796875 -26.828125 L 17.796875 0 L 5.640625 0 L 5.640625 -62.328125 L 17.796875 -62.328125 L 17.796875 -40.1875 Z M 17.96875 -40.1875 "/></g></g></g><g fill="#0F5132" fill-opacity="1"><g transform="translate(550.518482, 183.021335)"><g><path d="M 25 -8.5 C 26.789062 -8.5 28.425781 -8.929688 29.90625 -9.796875 C 31.382812 -10.671875 32.351562 -11.921875 32.8125 -13.546875 L 45.3125 -13.546875 C 43.976562 -8.859375 41.515625 -5.222656 37.921875 -2.640625 C 34.335938 -0.0664062 30.03125 1.21875 25 1.21875 C 17.363281 1.21875 11.617188 -0.890625 7.765625 -5.109375 C 3.921875 -9.335938 2 -15.617188 2 -23.953125 C 2 -28.523438 2.851562 -32.578125 4.5625 -36.109375 C 6.269531 -39.640625 8.769531 -42.40625 12.0625 -44.40625 C 15.363281 -46.40625 19.359375 -47.40625 24.046875 -47.40625 C 30.640625 -47.40625 35.921875 -45.289062 39.890625 -41.0625 C 43.859375 -36.832031 45.84375 -30.4375 45.84375 -21.875 L 45.84375 -19.796875 L 14.15625 -19.796875 C 14.5625 -12.265625 18.175781 -8.5 25 -8.5 Z M 23.875 -37.421875 C 18.320312 -37.421875 15.195312 -34.175781 14.5 -27.6875 L 33.34375 -27.6875 C 33.050781 -30.695312 32.0625 -33.070312 30.375 -34.8125 C 28.695312 -36.550781 26.53125 -37.421875 23.875 -37.421875 Z M 23.875 -37.421875 "/></g></g></g><g fill="#0F5132" fill-opacity="1"><g transform="translate(598.785756, 183.021335)"><g><path d="M 25 -8.5 C 26.789062 -8.5 28.425781 -8.929688 29.90625 -9.796875 C 31.382812 -10.671875 32.351562 -11.921875 32.8125 -13.546875 L 45.3125 -13.546875 C 43.976562 -8.859375 41.515625 -5.222656 37.921875 -2.640625 C 34.335938 -0.0664062 30.03125 1.21875 25 1.21875 C 17.363281 1.21875 11.617188 -0.890625 7.765625 -5.109375 C 3.921875 -9.335938 2 -15.617188 2 -23.953125 C 2 -28.523438 2.851562 -32.578125 4.5625 -36.109375 C 6.269531 -39.640625 8.769531 -42.40625 12.0625 -44.40625 C 15.363281 -46.40625 19.359375 -47.40625 24.046875 -47.40625 C 30.640625 -47.40625 35.921875 -45.289062 39.890625 -41.0625 C 43.859375 -36.832031 45.84375 -30.4375 45.84375 -21.875 L 45.84375 -19.796875 L 14.15625 -19.796875 C 14.5625 -12.265625 18.175781 -8.5 25 -8.5 Z M 23.875 -37.421875 C 18.320312 -37.421875 15.195312 -34.175781 14.5 -27.6875 L 33.34375 -27.6875 C 33.050781 -30.695312 32.0625 -33.070312 30.375 -34.8125 C 28.695312 -36.550781 26.53125 -37.421875 23.875 -37.421875 Z M 23.875 -37.421875 "/></g></g></g></svg>